PathFileType	4	(X/Y/Z)	C:\Users\Biomechanik\SynologyDrive\AlexP\Athlete_03\Athlete_3_25_03_31\Squat_bar_04\marker_experimental.trc
DataRate	CameraRate	NumFrames	NumMarkers	Units	OrigDataRate	OrigDataStartFrame	OrigNumFrames
200.000000	200.000000	4	55	mm	200.000000	57	461
Frame#	Time	BL			BR			GLAB			RFHD			LFHD			C7			T6			SPINMOL			SPINM2			SPINM3			T12			BELTOL			BELT2			BELT3			SACROL			SACR2			SACR3			LTHOL			LTH2			LTH3			LSHAOL			LSHA2			LSHA3			LHEE			LTOE			LM5			RTHOL			RTH2			RTH3			RSHAOL			RSHA2			RSHA3			RHEE			RTOE			RM5			STRN			XIPH			LACR			LUAOL			LUA2			LUA3			LLAOL			LLA2			LLA3			LWRR			LWRU			RACR			RUAOL			RUA2			RUA3			RLAOL			RLA2			RLA3			RWRR			RWRU			
		X1	Y1	Z1	X2	Y2	Z2	X3	Y3	Z3	X4	Y4	Z4	X5	Y5	Z5	X6	Y6	Z6	X7	Y7	Z7	X8	Y8	Z8	X9	Y9	Z9	X10	Y10	Z10	X11	Y11	Z11	X12	Y12	Z12	X13	Y13	Z13	X14	Y14	Z14	X15	Y15	Z15	X16	Y16	Z16	X17	Y17	Z17	X18	Y18	Z18	X19	Y19	Z19	X20	Y20	Z20	X21	Y21	Z21	X22	Y22	Z22	X23	Y23	Z23	X24	Y24	Z24	X25	Y25	Z25	X26	Y26	Z26	X27	Y27	Z27	X28	Y28	Z28	X29	Y29	Z29	X30	Y30	Z30	X31	Y31	Z31	X32	Y32	Z32	X33	Y33	Z33	X34	Y34	Z34	X35	Y35	Z35	X36	Y36	Z36	X37	Y37	Z37	X38	Y38	Z38	X39	Y39	Z39	X40	Y40	Z40	X41	Y41	Z41	X42	Y42	Z42	X43	Y43	Z43	X44	Y44	Z44	X45	Y45	Z45	X46	Y46	Z46	X47	Y47	Z47	X48	Y48	Z48	X49	Y49	Z49	X50	Y50	Z50	X51	Y51	Z51	X52	Y52	Z52	X53	Y53	Z53	X54	Y54	Z54	X55	Y55	Z55	

58	0.285	161.0687866210938	1340.351196289063	-2236.207763671875	189.3101501464844	1374.008422851562	-215.2744140624999	452.0758666992188	1561.747680664062	-1186.0810546875	400.65478515625	1584.172973632812	-1122.588256835938	408.150146484375	1586.593627929688	-1257.850219726562	222.1036529541016	1427.224975585938	-1196.060668945312	125.7448272705078	1280.694458007812	-1205.93896484375	108.8256530761719	1248.047607421875	-1225.610961914062	101.5637817382812	1239.745727539062	-1176.893676757812	93.04129791259766	1184.98486328125	-1212.581420898438	82.9515380859375	1117.64404296875	-1213.88916015625	58.49748992919922	1085.3955078125	-1232.474365234375	58.14194107055664	1081.241088867188	-1182.44384765625	42.45357894897461	1024.0771484375	-1212.908569335938	28.20301055908203	944.3981323242189	-1238.985961914062	27.43852043151855	940.2653198242189	-1187.3662109375	16.7139892578125	882.2037963867189	-1217.683959960938	118.9811477661133	674.9545288085939	-1431.500122070312	92.54327392578125	607.2024536132814	-1399.41748046875	130.7640228271484	613.7282104492189	-1430.921875	131.3995513916016	332.0824279785157	-1506.571899414062	94.54315185546875	262.9702758789064	-1492.511840820312	138.8746337890625	270.9547424316407	-1515.761474609375	111.117057800293	68.60831451416024	-1465.5810546875	314.5469970703125	51.04399871826181	-1540.887329101562	237.8549194335938	26.30999946594248	-1619.816040039062	91.71255493164062	683.0003051757814	-1006.882934570312	142.0220642089844	640.5897216796876	-961.2379150390625	107.7508392333984	624.9685058593751	-994.017333984375	88.58386993408203	347.1988220214844	-924.5465698242188	119.4645233154297	282.7450561523438	-891.9335327148438	82.73739624023438	285.0142517089844	-925.1309814453125	88.80036163330078	62.79450988769537	-965.849853515625	279.4152221679688	48.27892684936528	-869.3078002929688	190.6256256103516	37.51964569091802	-798.4425659179688	365.3072509765625	1291.723022460938	-1203.933471679688	352.3440551757812	1145.765014648438	-1202.509765625	264.9704284667969	1387.692260742188	-1368.500732421875	161.4345550537109	1261.994384765625	-1457.933471679688	116.7968978881836	1215.373168945312	-1444.819580078125	147.3653717041016	1203.52001953125	-1483.9423828125	123.7287826538086	1133.025756835938	-1551.459838867188	193.4595947265625	1133.352172851562	-1588.736572265625	162.4955444335938	1171.773803710938	-1578.997436523438	212.3521270751953	1254.532958984375	-1621.205200195312	223.582763671875	1285.581909179688	-1549.489379882812	281.0817260742188	1382.250366210938	-1035.898681640625	178.376708984375	1259.492065429688	-954.1380004882811	157.1792144775391	1202.955444335938	-927.3433837890624	135.1415557861328	1213.935302734375	-973.0261840820311	157.0024719238281	1132.773681640625	-844.0164794921874	152.6253967285156	1211.922729492188	-831.2305297851561	191.4873504638672	1179.6796875	-821.3809814453124	218.4383544921875	1267.56494140625	-799.7169799804686	239.9706420898438	1301.837768554688	-868.8962402343749	
59	0.29	161.4681854248047	1339.984985351563	-2236.262451171875	189.7611999511719	1373.97802734375	-215.3341674804687	452.5916748046875	1561.343627929688	-1186.163940429688	401.1640014648438	1583.800903320312	-1122.695556640625	408.682861328125	1586.190795898438	-1257.950439453125	222.5569152832031	1426.964965820312	-1196.138793945312	126.0623092651367	1280.529663085938	-1206.005249023438	109.1047286987305	1247.940551757812	-1225.693237304688	101.8114013671875	1239.633422851562	-1176.984008789062	93.21832275390625	1184.904541015625	-1212.679809570312	82.96784973144531	1117.710205078125	-1213.998901367188	58.33758926391602	1085.591918945312	-1232.590698242188	57.9393424987793	1081.472778320312	-1182.556762695312	42.04011535644531	1024.352294921875	-1213.010986328125	27.59923553466797	944.4328002929689	-1239.094360351562	26.81036376953125	940.3388671875001	-1187.47021484375	16.01321983337402	882.2685546875001	-1217.739013671875	119.0391540527344	674.6258544921876	-1432.018920898438	92.92516326904297	606.6685791015626	-1400.08154296875	131.1158294677734	613.4531860351564	-1431.562866210938	132.1737670898438	332.2146301269532	-1507.201904296875	95.12117004394531	263.2237854003907	-1493.032836914062	139.4957580566406	271.0390014648439	-1516.255126953125	111.1407241821289	68.62457275390634	-1465.559448242188	314.5708618164062	51.02246856689462	-1540.858520507812	237.8683013916016	26.32933616638194	-1619.800415039062	91.5234375	682.7664794921876	-1006.474182128906	142.0197601318359	640.6162109375001	-960.795654296875	107.8029479980469	624.8068237304689	-993.5243530273438	89.10301208496094	347.2703552246094	-924.021728515625	119.8873062133789	282.7149963378907	-891.5309448242188	83.15666961669922	285.0991210937501	-924.7125854492188	88.78932952880859	62.79767608642584	-965.8408203125	279.416748046875	48.28207397460942	-869.3187255859375	190.6299285888672	37.52059936523442	-798.4520874023438	365.6294555664062	1291.33251953125	-1203.992309570312	352.4979858398438	1145.346435546875	-1202.554077148438	265.3914489746094	1387.35009765625	-1368.578491210938	161.7239532470703	1261.726684570312	-1458.014526367188	117.0755615234375	1215.140380859375	-1444.875732421875	147.6397399902344	1203.25341796875	-1484.00048828125	123.9565887451172	1132.77880859375	-1551.505737304688	193.68603515625	1133.055297851562	-1588.776733398438	162.7559509277344	1171.496948242188	-1579.042602539062	212.6834411621094	1254.213012695312	-1621.254638671875	223.9195098876953	1285.253051757812	-1549.539184570312	281.5014343261719	1381.895629882812	-1035.988403320312	178.6900329589844	1259.270385742188	-954.1640624999999	157.4592437744141	1202.76025390625	-927.3500976562499	135.4190216064453	1213.731323242188	-973.0231933593749	157.2463531494141	1132.62109375	-843.9769287109374	152.9337921142578	1211.788452148438	-831.2238769531249	191.7714538574219	1179.509765625	-821.3615112304686	218.7958831787109	1267.385131835938	-799.7395019531249	240.3499145507812	1301.613525390625	-868.9335937499999	
60	0.295	161.8797454833984	1339.597045898438	-2236.320556640625	190.2206573486328	1373.92529296875	-215.3968811035155	453.1217956542969	1560.910034179688	-1186.250732421875	401.687255859375	1583.400390625	-1122.80859375	409.231689453125	1585.758911132812	-1258.054443359375	223.0199279785156	1426.680053710938	-1196.220581054688	126.3873596191406	1280.339721679688	-1206.078491210938	109.3919067382812	1247.810424804688	-1225.783813476562	102.0621719360352	1239.498901367188	-1177.082397460938	93.40097045898438	1184.804077148438	-1212.788330078125	82.98980712890625	1117.75439453125	-1214.118530273438	58.17467880249023	1085.777587890625	-1232.71240234375	57.730224609375	1081.692626953125	-1182.677368164062	41.60700607299805	1024.621337890625	-1213.127075195312	26.97972106933594	944.4550170898439	-1239.213745117188	26.16414260864258	940.4047241210939	-1187.584228515625	15.29121112823486	882.3238525390626	-1217.798828125	119.1027679443359	674.2792358398439	-1432.563110351562	93.31809997558594	606.1148071289064	-1400.77099609375	131.4764556884766	613.1637573242189	-1432.22998046875	132.9563446044922	332.3463134765626	-1507.847045898438	95.70693206787109	263.4789428710939	-1493.564453125	140.1242828369141	271.1219177246095	-1516.760986328125	111.1660079956055	68.6421432495118	-1465.53662109375	314.5953674316406	51.00073242187509	-1540.830078125	237.8817901611328	26.34978485107432	-1619.784912109375	91.34141540527344	682.5108032226564	-1006.04248046875	142.0321350097656	640.6383666992189	-960.3273315429688	107.8818969726562	624.6275634765626	-993.0046997070312	89.66403198242188	347.3478393554688	-923.4625854492188	120.3435516357422	282.6835937500001	-891.1026611328125	83.60810852050781	285.1914978027344	-924.2653198242188	88.77957153320312	62.80136108398443	-965.8328857421875	279.4184265136719	48.28590774536138	-869.332275390625	190.6353149414062	37.52260589599614	-798.4627075195312	365.9582824707031	1290.91552734375	-1204.053955078125	352.6595764160156	1144.90087890625	-1202.601318359375	265.8208618164062	1386.982055664062	-1368.659912109375	162.020751953125	1261.435913085938	-1458.094482421875	117.3578567504883	1214.887451171875	-1444.931274414062	147.9160461425781	1202.964599609375	-1484.059448242188	124.1850204467773	1132.5107421875	-1551.552856445312	193.9140319824219	1132.734497070312	-1588.819580078125	163.018310546875	1171.197021484375	-1579.089233398438	213.0205535888672	1253.867431640625	-1621.306518554688	224.2636413574219	1284.898193359375	-1549.592041015625	281.9260559082031	1381.506469726562	-1036.0888671875	179.0103454589844	1259.0244140625	-954.1915893554686	157.7470245361328	1202.540405273438	-927.3551635742186	135.7018127441406	1213.502319335938	-973.0209960937499	157.4956665039062	1132.445434570312	-843.9382324218749	153.2493286132812	1211.629638671875	-831.2180175781249	192.0630950927734	1179.315185546875	-821.3433227539061	219.1635894775391	1267.18115234375	-799.7646484374999	240.7386169433594	1301.364135742188	-868.9729614257811	
61	0.3	162.3031768798828	1339.185668945313	-2236.38134765625	190.6882629394531	1373.847900390625	-215.4626312255859	453.6661071777344	1560.444458007812	-1186.341918945312	402.2249755859375	1582.969604492188	-1122.926879882812	409.7965393066406	1585.295654296875	-1258.162475585938	223.491943359375	1426.367797851562	-1196.305908203125	126.7197494506836	1280.12255859375	-1206.158569335938	109.6866760253906	1247.655395507812	-1225.882934570312	102.3161468505859	1239.340209960938	-1177.1875	93.58705902099609	1184.681396484375	-1212.907592773438	83.01640319824219	1117.77490234375	-1214.2490234375	58.00876998901367	1085.951416015625	-1232.839111328125	57.51458358764648	1081.89892578125	-1182.80615234375	41.15541458129883	1024.88232421875	-1213.256713867188	26.34397506713867	944.4631958007814	-1239.344970703125	25.49935531616211	940.4608154296876	-1187.709106445312	14.54823303222656	882.3677978515626	-1217.865234375	119.1698608398438	673.9155273437501	-1433.132446289062	93.71860504150391	605.5424804687501	-1401.486572265625	131.8440093994141	612.8601074218751	-1432.922485351562	133.7452392578125	332.4754638671876	-1508.506958007812	96.29795837402344	263.7342224121095	-1494.108276367188	140.7583160400391	271.2024230957032	-1517.279418945312	111.1928253173828	68.66114807128915	-1465.512573242188	314.6202087402344	50.97906494140634	-1540.802368164062	237.8951416015625	26.37113952636729	-1619.769775390625	91.16750335693359	682.2291870117189	-1005.588562011719	142.0611572265625	640.6549682617189	-959.8316040039062	107.9903259277344	624.4280395507814	-992.4567260742188	90.27019500732422	347.4317016601563	-922.8665771484375	120.8360977172852	282.6504821777344	-890.6468505859375	84.09432983398438	285.2918701171876	-923.7872924804688	88.77130889892578	62.80577087402349	-965.8262329101562	279.42041015625	48.29038619995122	-869.3489379882812	190.6419830322266	37.52587509155278	-798.4745483398438	366.2932434082031	1290.470336914062	-1204.118530273438	352.8290100097656	1144.427124023438	-1202.65087890625	266.2582092285156	1386.586303710938	-1368.744506835938	162.3257751464844	1261.119995117188	-1458.1728515625	117.6440048217773	1214.611938476562	-1444.986572265625	148.1952514648438	1202.651611328125	-1484.11865234375	124.4152145385742	1132.218994140625	-1551.6015625	194.1445922851562	1132.388061523438	-1588.865234375	163.2832946777344	1170.8720703125	-1579.137817382812	213.3633575439453	1253.494506835938	-1621.361206054688	224.6154937744141	1284.515747070312	-1549.647827148438	282.3553466796875	1381.082153320312	-1036.199340820312	179.3385925292969	1258.752197265625	-954.2208251953124	158.0426483154297	1202.294311523438	-927.3588867187499	135.9904022216797	1213.24609375	-973.0195922851561	157.7509613037109	1132.245239257812	-843.9005737304686	153.5726470947266	1211.443237304688	-831.2131347656249	192.3629455566406	1179.093872070312	-821.3267211914061	219.5408325195312	1266.951293945312	-799.7924804687499	241.1363830566406	1301.088134765625	-869.0145263671874	
